<svg width="15" height="14" viewBox="0 0 15 14" fill="none" xmlns="http://www.w3.org/2000/svg">
<path d="M13.9532 6.56152C13.3753 6.56152 12.9063 7.03051 12.9063 7.60848V11.0628H2.09391V7.60848C2.09391 7.03051 1.62493 6.56152 1.04696 6.56152C0.468989 6.56152 0 7.03051 0 7.60848V12.1086C0 12.6865 0.468989 13.1555 1.04696 13.1555H13.9533C14.5313 13.1555 15.0003 12.6865 15.0003 12.1086V7.60848C15.0003 7.03051 14.5312 6.56152 13.9532 6.56152Z" fill="#F5F5F7"/>
<path d="M3.89872 5.70685C4.17607 5.70746 4.44241 5.59725 4.63833 5.40072L6.45303 3.58602V8.21039C6.45303 8.78897 6.92202 9.25735 7.49999 9.25735C8.07796 9.25735 8.54695 8.78897 8.54695 8.21039V3.5854L10.3617 5.4001C10.7719 5.79807 11.4258 5.79255 11.8298 5.38846C12.2345 4.98438 12.2394 4.33049 11.8421 3.91967L8.3412 0.418786C8.14161 0.154903 7.82997 0 7.49935 0C7.16873 0 6.85709 0.1549 6.6575 0.419397L3.15787 3.91965C2.8591 4.21905 2.76909 4.66904 2.93134 5.06027C3.0936 5.4515 3.47503 5.70681 3.8981 5.70681L3.89872 5.70685Z" fill="#F5F5F7"/>
</svg>
