<svg width="258" height="19" viewBox="0 0 258 19" fill="none" xmlns="http://www.w3.org/2000/svg">
<path d="M0.0175937 2.88H10.0976V5.664H3.66559V8.76H9.47359V11.52H3.66559V15.216H10.1696V18H0.0175937V2.88ZM19.5641 12.096L23.6441 18H19.5641L18.6041 16.56L17.3321 14.28L16.1561 16.536L15.2441 18H11.2121L15.2441 12.096L11.4521 6.48H15.4121L16.3721 7.968L17.5001 10.152L18.5561 7.968L19.4441 6.48H23.3321L19.5641 12.096ZM31.4478 15.672C31.9598 15.672 32.4078 15.608 32.7918 15.48C33.1918 15.336 33.4958 15.208 33.7038 15.096L34.3518 17.496C34.0798 17.656 33.6238 17.824 32.9838 18C32.3438 18.176 31.6398 18.264 30.8718 18.264C29.9758 18.264 29.1438 18.136 28.3758 17.88C27.6238 17.624 26.9678 17.248 26.4078 16.752C25.8638 16.24 25.4318 15.616 25.1118 14.88C24.7918 14.128 24.6318 13.264 24.6318 12.288C24.6318 11.392 24.7838 10.576 25.0878 9.84C25.3918 9.088 25.8238 8.448 26.3838 7.92C26.9438 7.376 27.6078 6.96 28.3758 6.672C29.1438 6.368 29.9998 6.216 30.9438 6.216C31.4398 6.216 31.9758 6.272 32.5518 6.384C33.1438 6.496 33.7438 6.712 34.3518 7.032L33.6078 9.456C33.2878 9.264 32.9278 9.104 32.5278 8.976C32.1438 8.848 31.7518 8.784 31.3518 8.784C30.4238 8.784 29.6718 9.072 29.0958 9.648C28.5198 10.208 28.2318 11.056 28.2318 12.192C28.2318 12.832 28.3278 13.376 28.5198 13.824C28.7118 14.256 28.9598 14.616 29.2638 14.904C29.5678 15.176 29.9118 15.376 30.2958 15.504C30.6798 15.616 31.0638 15.672 31.4478 15.672ZM36.5304 18V0.839999H40.0344V18H36.5304ZM50.2237 6.48H53.7757V18H51.1597L50.7997 16.752H50.7037C50.5437 16.912 50.3517 17.08 50.1277 17.256C49.9037 17.432 49.6317 17.6 49.3117 17.76C49.0077 17.904 48.6557 18.024 48.2557 18.12C47.8557 18.216 47.3997 18.264 46.8877 18.264C45.6397 18.264 44.6637 17.92 43.9597 17.232C43.2557 16.544 42.9037 15.528 42.9037 14.184V6.48H46.4557V13.896C46.4557 14.488 46.5997 14.928 46.8877 15.216C47.1917 15.488 47.5757 15.624 48.0397 15.624C48.5997 15.624 49.0557 15.512 49.4077 15.288C49.7757 15.048 50.0477 14.8 50.2237 14.544V6.48ZM63.6718 9.432C63.2398 9.224 62.7838 9.064 62.3038 8.952C61.8238 8.824 61.3598 8.76 60.9118 8.76C60.4958 8.76 60.1598 8.832 59.9038 8.976C59.6478 9.12 59.5198 9.32 59.5198 9.576C59.5198 9.848 59.6398 10.08 59.8798 10.272C60.1358 10.448 60.6318 10.64 61.3678 10.848L62.0878 11.064C63.0478 11.352 63.7758 11.776 64.2718 12.336C64.7678 12.88 65.0158 13.584 65.0158 14.448C65.0158 15.024 64.8958 15.552 64.6558 16.032C64.4158 16.496 64.0718 16.896 63.6238 17.232C63.1918 17.568 62.6638 17.824 62.0398 18C61.4318 18.176 60.7518 18.264 59.9998 18.264C59.1838 18.264 58.4558 18.192 57.8158 18.048C57.1918 17.904 56.6078 17.696 56.0638 17.424L56.8318 14.856C57.2958 15.096 57.7758 15.296 58.2718 15.456C58.7838 15.6 59.3038 15.672 59.8318 15.672C60.4398 15.672 60.8638 15.584 61.1038 15.408C61.3598 15.232 61.4878 15.024 61.4878 14.784C61.4878 14.64 61.4558 14.52 61.3918 14.424C61.3438 14.312 61.2478 14.208 61.1038 14.112C60.9598 14.016 60.7518 13.928 60.4798 13.848C60.2238 13.752 59.8878 13.64 59.4718 13.512L58.7278 13.296C57.7838 12.992 57.0958 12.576 56.6638 12.048C56.2318 11.504 56.0158 10.776 56.0158 9.864C56.0158 9.336 56.1198 8.856 56.3278 8.424C56.5358 7.976 56.8318 7.592 57.2158 7.272C57.6158 6.936 58.0958 6.68 58.6558 6.504C59.2318 6.312 59.8878 6.216 60.6238 6.216C61.3598 6.216 62.0398 6.288 62.6638 6.432C63.3038 6.56 63.8798 6.744 64.3918 6.984L63.6718 9.432ZM67.4958 18V6.48H71.0478V18H67.4958ZM69.2718 4.224C68.6638 4.224 68.1998 4.056 67.8798 3.72C67.5598 3.368 67.3998 2.952 67.3998 2.472C67.3998 1.992 67.5598 1.584 67.8798 1.248C68.2158 0.895999 68.6798 0.719999 69.2718 0.719999C69.8638 0.719999 70.3198 0.887999 70.6398 1.224C70.9758 1.56 71.1438 1.976 71.1438 2.472C71.1438 2.968 70.9838 3.384 70.6638 3.72C70.3438 4.056 69.8798 4.224 69.2718 4.224ZM81.251 6.48H85.019L80.987 18H76.763L72.923 6.48H76.715L78.107 11.52L78.899 15.528H78.995L79.787 11.52L81.251 6.48ZM96.7723 13.272H89.3323V13.368C89.3323 14.168 89.6443 14.752 90.2683 15.12C90.8923 15.488 91.6763 15.672 92.6203 15.672C93.2763 15.672 93.8523 15.608 94.3483 15.48C94.8443 15.352 95.2603 15.2 95.5963 15.024L96.2443 17.472C95.8123 17.68 95.2603 17.864 94.5883 18.024C93.9323 18.184 93.1243 18.264 92.1643 18.264C91.3003 18.264 90.4763 18.152 89.6923 17.928C88.9243 17.688 88.2443 17.328 87.6523 16.848C87.0763 16.368 86.6123 15.76 86.2603 15.024C85.9243 14.288 85.7563 13.408 85.7563 12.384C85.7563 11.472 85.8923 10.64 86.1643 9.888C86.4523 9.12 86.8523 8.464 87.3643 7.92C87.8763 7.376 88.4843 6.96 89.1883 6.672C89.9083 6.368 90.7003 6.216 91.5643 6.216C93.1483 6.216 94.4123 6.696 95.3563 7.656C96.3003 8.616 96.7723 9.984 96.7723 11.76V13.272ZM93.1483 10.848C93.1483 10.576 93.1163 10.312 93.0523 10.056C92.9883 9.8 92.8843 9.576 92.7403 9.384C92.6123 9.176 92.4363 9.016 92.2123 8.904C92.0043 8.776 91.7483 8.712 91.4443 8.712C90.8843 8.712 90.4203 8.912 90.0523 9.312C89.6843 9.696 89.4683 10.224 89.4043 10.896L93.1483 10.848ZM112.488 15.48C113.208 15.48 113.816 15.416 114.312 15.288C114.808 15.16 115.224 14.992 115.56 14.784L116.28 17.4C115.96 17.592 115.44 17.784 114.72 17.976C114.016 18.168 113.144 18.264 112.104 18.264C110.92 18.264 109.832 18.08 108.84 17.712C107.848 17.344 107 16.824 106.296 16.152C105.592 15.464 105.04 14.64 104.64 13.68C104.256 12.704 104.064 11.616 104.064 10.416C104.064 9.248 104.248 8.184 104.616 7.224C105 6.248 105.536 5.424 106.224 4.752C106.928 4.064 107.776 3.536 108.768 3.168C109.776 2.784 110.904 2.592 112.152 2.592C113.208 2.592 114.064 2.696 114.72 2.904C115.392 3.096 115.92 3.296 116.304 3.504L115.488 6.168C115.12 5.96 114.68 5.776 114.168 5.616C113.672 5.456 113.12 5.376 112.512 5.376C111.872 5.376 111.272 5.472 110.712 5.664C110.152 5.84 109.664 6.128 109.248 6.528C108.832 6.928 108.504 7.448 108.264 8.088C108.024 8.712 107.904 9.48 107.904 10.392C107.904 11.24 108.016 11.984 108.24 12.624C108.48 13.264 108.808 13.8 109.224 14.232C109.64 14.648 110.12 14.96 110.664 15.168C111.224 15.376 111.832 15.48 112.488 15.48ZM129.257 12.168C129.257 13.112 129.097 13.96 128.777 14.712C128.473 15.464 128.049 16.104 127.505 16.632C126.961 17.16 126.321 17.568 125.585 17.856C124.849 18.128 124.057 18.264 123.209 18.264C122.361 18.264 121.569 18.136 120.833 17.88C120.113 17.608 119.489 17.224 118.961 16.728C118.433 16.232 118.017 15.624 117.713 14.904C117.409 14.168 117.257 13.336 117.257 12.408C117.257 11.432 117.409 10.56 117.713 9.792C118.033 9.024 118.465 8.376 119.009 7.848C119.553 7.32 120.193 6.92 120.929 6.648C121.665 6.36 122.457 6.216 123.305 6.216C124.153 6.216 124.937 6.344 125.657 6.6C126.393 6.856 127.025 7.24 127.553 7.752C128.081 8.248 128.497 8.864 128.801 9.6C129.105 10.336 129.257 11.192 129.257 12.168ZM125.609 12.288C125.609 11.664 125.545 11.136 125.417 10.704C125.289 10.256 125.113 9.896 124.889 9.624C124.665 9.336 124.409 9.128 124.121 9C123.833 8.872 123.537 8.808 123.233 8.808C122.929 8.808 122.633 8.864 122.345 8.976C122.073 9.088 121.825 9.28 121.601 9.552C121.393 9.824 121.225 10.184 121.097 10.632C120.969 11.064 120.905 11.616 120.905 12.288C120.905 13.456 121.145 14.312 121.625 14.856C122.105 15.4 122.657 15.672 123.281 15.672C123.585 15.672 123.873 15.616 124.145 15.504C124.433 15.376 124.681 15.184 124.889 14.928C125.113 14.656 125.289 14.304 125.417 13.872C125.545 13.44 125.609 12.912 125.609 12.288ZM131.523 18V0.839999H135.027V18H131.523ZM137.968 18V0.839999H141.472V18H137.968ZM144.557 7.488C145.213 7.104 145.949 6.8 146.765 6.576C147.597 6.336 148.445 6.216 149.309 6.216C150.733 6.216 151.877 6.56 152.741 7.248C153.605 7.936 154.037 9.032 154.037 10.536V18H151.325L151.013 16.848H150.917C150.597 17.264 150.149 17.608 149.573 17.88C149.013 18.136 148.349 18.264 147.581 18.264C146.925 18.264 146.349 18.168 145.853 17.976C145.373 17.784 144.973 17.528 144.653 17.208C144.333 16.888 144.085 16.512 143.909 16.08C143.749 15.632 143.669 15.16 143.669 14.664C143.669 13.992 143.813 13.416 144.101 12.936C144.405 12.456 144.805 12.064 145.301 11.76C145.813 11.456 146.405 11.232 147.077 11.088C147.765 10.944 148.493 10.872 149.261 10.872H150.461V10.248C150.461 9.816 150.309 9.488 150.005 9.264C149.701 9.024 149.269 8.904 148.709 8.904C148.229 8.904 147.757 8.976 147.293 9.12C146.829 9.264 146.317 9.496 145.757 9.816L144.557 7.488ZM150.485 13.032L149.693 13.056C149.245 13.072 148.869 13.12 148.565 13.2C148.261 13.28 148.013 13.384 147.821 13.512C147.645 13.624 147.517 13.768 147.437 13.944C147.357 14.104 147.317 14.272 147.317 14.448C147.317 14.944 147.461 15.288 147.749 15.48C148.053 15.656 148.397 15.744 148.781 15.744C149.165 15.744 149.509 15.632 149.813 15.408C150.133 15.184 150.357 14.936 150.485 14.664V13.032ZM168.286 12.288C168.286 13.216 168.142 14.048 167.854 14.784C167.582 15.52 167.198 16.152 166.702 16.68C166.222 17.192 165.646 17.584 164.974 17.856C164.318 18.128 163.598 18.264 162.814 18.264C162.062 18.264 161.422 18.152 160.894 17.928C160.366 17.688 159.918 17.36 159.55 16.944H159.454L159.238 18H156.67V0.839999H160.198V7.272C160.566 6.968 160.998 6.72 161.494 6.528C161.99 6.32 162.542 6.216 163.15 6.216C164.75 6.216 166.006 6.752 166.918 7.824C167.83 8.88 168.286 10.368 168.286 12.288ZM164.638 12.384C164.638 11.216 164.414 10.344 163.966 9.768C163.518 9.192 162.886 8.904 162.07 8.904C161.686 8.904 161.318 9.008 160.966 9.216C160.63 9.408 160.382 9.6 160.222 9.792V14.976C160.398 15.184 160.63 15.352 160.918 15.48C161.206 15.608 161.51 15.672 161.83 15.672C162.198 15.672 162.55 15.608 162.886 15.48C163.222 15.352 163.518 15.152 163.774 14.88C164.046 14.608 164.254 14.264 164.398 13.848C164.558 13.432 164.638 12.944 164.638 12.384ZM181.874 12.168C181.874 13.112 181.714 13.96 181.394 14.712C181.09 15.464 180.666 16.104 180.122 16.632C179.578 17.16 178.938 17.568 178.202 17.856C177.466 18.128 176.674 18.264 175.826 18.264C174.978 18.264 174.186 18.136 173.45 17.88C172.73 17.608 172.106 17.224 171.578 16.728C171.05 16.232 170.634 15.624 170.33 14.904C170.026 14.168 169.874 13.336 169.874 12.408C169.874 11.432 170.026 10.56 170.33 9.792C170.65 9.024 171.082 8.376 171.626 7.848C172.17 7.32 172.81 6.92 173.546 6.648C174.282 6.36 175.074 6.216 175.922 6.216C176.77 6.216 177.554 6.344 178.274 6.6C179.01 6.856 179.642 7.24 180.17 7.752C180.698 8.248 181.114 8.864 181.418 9.6C181.722 10.336 181.874 11.192 181.874 12.168ZM178.226 12.288C178.226 11.664 178.162 11.136 178.034 10.704C177.906 10.256 177.73 9.896 177.506 9.624C177.282 9.336 177.026 9.128 176.738 9C176.45 8.872 176.154 8.808 175.85 8.808C175.546 8.808 175.25 8.864 174.962 8.976C174.69 9.088 174.442 9.28 174.218 9.552C174.01 9.824 173.842 10.184 173.714 10.632C173.586 11.064 173.522 11.616 173.522 12.288C173.522 13.456 173.762 14.312 174.242 14.856C174.722 15.4 175.274 15.672 175.898 15.672C176.202 15.672 176.49 15.616 176.762 15.504C177.05 15.376 177.298 15.184 177.506 14.928C177.73 14.656 177.906 14.304 178.034 13.872C178.162 13.44 178.226 12.912 178.226 12.288ZM184.068 18V6.48H186.852L187.212 8.496C187.356 8.208 187.532 7.928 187.74 7.656C187.948 7.368 188.196 7.12 188.484 6.912C188.772 6.704 189.1 6.536 189.468 6.408C189.852 6.28 190.276 6.216 190.74 6.216C191.092 6.216 191.412 6.264 191.7 6.36C192.004 6.44 192.244 6.536 192.42 6.648L191.844 9.408C191.668 9.312 191.444 9.224 191.172 9.144C190.9 9.064 190.564 9.024 190.164 9.024C189.428 9.024 188.812 9.264 188.316 9.744C187.836 10.224 187.596 11.056 187.596 12.24V18H184.068ZM193.448 7.488C194.104 7.104 194.84 6.8 195.656 6.576C196.488 6.336 197.336 6.216 198.2 6.216C199.624 6.216 200.768 6.56 201.632 7.248C202.496 7.936 202.928 9.032 202.928 10.536V18H200.216L199.904 16.848H199.808C199.488 17.264 199.04 17.608 198.464 17.88C197.904 18.136 197.24 18.264 196.472 18.264C195.816 18.264 195.24 18.168 194.744 17.976C194.264 17.784 193.864 17.528 193.544 17.208C193.224 16.888 192.976 16.512 192.8 16.08C192.64 15.632 192.56 15.16 192.56 14.664C192.56 13.992 192.704 13.416 192.992 12.936C193.296 12.456 193.696 12.064 194.192 11.76C194.704 11.456 195.296 11.232 195.968 11.088C196.656 10.944 197.384 10.872 198.152 10.872H199.352V10.248C199.352 9.816 199.2 9.488 198.896 9.264C198.592 9.024 198.16 8.904 197.6 8.904C197.12 8.904 196.648 8.976 196.184 9.12C195.72 9.264 195.208 9.496 194.648 9.816L193.448 7.488ZM199.376 13.032L198.584 13.056C198.136 13.072 197.76 13.12 197.456 13.2C197.152 13.28 196.904 13.384 196.712 13.512C196.536 13.624 196.408 13.768 196.328 13.944C196.248 14.104 196.208 14.272 196.208 14.448C196.208 14.944 196.352 15.288 196.64 15.48C196.944 15.656 197.288 15.744 197.672 15.744C198.056 15.744 198.4 15.632 198.704 15.408C199.024 15.184 199.248 14.936 199.376 14.664V13.032ZM212.875 9.024H209.923V13.896C209.923 14.424 210.035 14.792 210.259 15C210.499 15.208 210.827 15.312 211.243 15.312C211.563 15.312 211.883 15.28 212.203 15.216C212.523 15.152 212.771 15.064 212.947 14.952L213.475 17.376C213.203 17.52 212.787 17.664 212.227 17.808C211.683 17.936 211.099 18 210.475 18C208.987 18 207.931 17.712 207.307 17.136C206.699 16.56 206.395 15.688 206.395 14.52V9.024H204.595V6.48H206.395V2.976H209.923V6.48H212.875V9.024ZM215.316 18V6.48H218.868V18H215.316ZM217.092 4.224C216.484 4.224 216.02 4.056 215.7 3.72C215.38 3.368 215.22 2.952 215.22 2.472C215.22 1.992 215.38 1.584 215.7 1.248C216.036 0.895999 216.5 0.719999 217.092 0.719999C217.684 0.719999 218.14 0.887999 218.46 1.224C218.796 1.56 218.964 1.976 218.964 2.472C218.964 2.968 218.804 3.384 218.484 3.72C218.164 4.056 217.7 4.224 217.092 4.224ZM233.319 12.168C233.319 13.112 233.159 13.96 232.839 14.712C232.535 15.464 232.111 16.104 231.567 16.632C231.023 17.16 230.383 17.568 229.647 17.856C228.911 18.128 228.119 18.264 227.271 18.264C226.423 18.264 225.631 18.136 224.895 17.88C224.175 17.608 223.551 17.224 223.023 16.728C222.495 16.232 222.079 15.624 221.775 14.904C221.471 14.168 221.319 13.336 221.319 12.408C221.319 11.432 221.471 10.56 221.775 9.792C222.095 9.024 222.527 8.376 223.071 7.848C223.615 7.32 224.255 6.92 224.991 6.648C225.727 6.36 226.519 6.216 227.367 6.216C228.215 6.216 228.999 6.344 229.719 6.6C230.455 6.856 231.087 7.24 231.615 7.752C232.143 8.248 232.559 8.864 232.863 9.6C233.167 10.336 233.319 11.192 233.319 12.168ZM229.671 12.288C229.671 11.664 229.607 11.136 229.479 10.704C229.351 10.256 229.175 9.896 228.951 9.624C228.727 9.336 228.471 9.128 228.183 9C227.895 8.872 227.599 8.808 227.295 8.808C226.991 8.808 226.695 8.864 226.407 8.976C226.135 9.088 225.887 9.28 225.663 9.552C225.455 9.824 225.287 10.184 225.159 10.632C225.031 11.064 224.967 11.616 224.967 12.288C224.967 13.456 225.207 14.312 225.687 14.856C226.167 15.4 226.719 15.672 227.343 15.672C227.647 15.672 227.935 15.616 228.207 15.504C228.495 15.376 228.743 15.184 228.951 14.928C229.175 14.656 229.351 14.304 229.479 13.872C229.607 13.44 229.671 12.912 229.671 12.288ZM239.065 18H235.513V6.48H238.273L238.681 7.92C239.193 7.392 239.769 6.976 240.409 6.672C241.049 6.368 241.745 6.216 242.497 6.216C243.793 6.216 244.785 6.568 245.473 7.272C246.161 7.976 246.505 9.008 246.505 10.368V18H242.953V10.728C242.953 10.168 242.817 9.728 242.545 9.408C242.289 9.072 241.905 8.904 241.393 8.904C241.009 8.904 240.601 9.016 240.169 9.24C239.753 9.464 239.385 9.76 239.065 10.128V18ZM256.398 9.432C255.966 9.224 255.51 9.064 255.03 8.952C254.55 8.824 254.086 8.76 253.638 8.76C253.222 8.76 252.886 8.832 252.63 8.976C252.374 9.12 252.246 9.32 252.246 9.576C252.246 9.848 252.366 10.08 252.606 10.272C252.862 10.448 253.358 10.64 254.094 10.848L254.814 11.064C255.774 11.352 256.502 11.776 256.998 12.336C257.494 12.88 257.742 13.584 257.742 14.448C257.742 15.024 257.622 15.552 257.382 16.032C257.142 16.496 256.798 16.896 256.35 17.232C255.918 17.568 255.39 17.824 254.766 18C254.158 18.176 253.478 18.264 252.726 18.264C251.91 18.264 251.182 18.192 250.542 18.048C249.918 17.904 249.334 17.696 248.79 17.424L249.558 14.856C250.022 15.096 250.502 15.296 250.998 15.456C251.51 15.6 252.03 15.672 252.558 15.672C253.166 15.672 253.59 15.584 253.83 15.408C254.086 15.232 254.214 15.024 254.214 14.784C254.214 14.64 254.182 14.52 254.118 14.424C254.07 14.312 253.974 14.208 253.83 14.112C253.686 14.016 253.478 13.928 253.206 13.848C252.95 13.752 252.614 13.64 252.198 13.512L251.454 13.296C250.51 12.992 249.822 12.576 249.39 12.048C248.958 11.504 248.742 10.776 248.742 9.864C248.742 9.336 248.846 8.856 249.054 8.424C249.262 7.976 249.558 7.592 249.942 7.272C250.342 6.936 250.822 6.68 251.382 6.504C251.958 6.312 252.614 6.216 253.35 6.216C254.086 6.216 254.766 6.288 255.39 6.432C256.03 6.56 256.606 6.744 257.118 6.984L256.398 9.432Z" fill="white"/>
</svg>
